<svg xmlns="http://www.w3.org/2000/svg" xmlns:xlink="http://www.w3.org/1999/xlink" viewBox="0 0 184.48 122.68"><defs><style>.cls-1{fill:none;}.cls-2{fill:url(#未命名的渐变_99);}.cls-3{fill:#999;}.cls-4{fill:url(#未命名的渐变_99-2);}.cls-5{fill:url(#未命名的渐变_98);}.cls-6{font-size:31.89px;fill:#bcbcbc;font-family:MicrosoftYaHei, Microsoft YaHei;}.cls-7{letter-spacing:-0.01em;}.cls-8{fill:url(#未命名的渐变_7);}.cls-9{fill:url(#未命名的渐变_7-2);}.cls-10{fill:url(#未命名的渐变_7-3);}.cls-11{fill:url(#未命名的渐变_7-4);}</style><linearGradient id="未命名的渐变_99" x1="89.4" y1="0.17" x2="89.4" y2="119.85" gradientUnits="userSpaceOnUse"><stop offset="0" stop-color="#86cff5"/><stop offset="1" stop-color="#449be7"/></linearGradient><linearGradient id="未命名的渐变_99-2" x1="73.77" y1="0" x2="73.77" y2="71.2" xlink:href="#未命名的渐变_99"/><linearGradient id="未命名的渐变_98" x1="23.2" y1="21.8" x2="23.2" y2="75.82" gradientUnits="userSpaceOnUse"><stop offset="0" stop-color="#449be7"/><stop offset="1" stop-color="#86cff5"/></linearGradient><linearGradient id="未命名的渐变_7" x1="199.46" y1="32.71" x2="263.1" y2="32.71" gradientUnits="userSpaceOnUse"><stop offset="0" stop-color="#4da2e9"/><stop offset="1" stop-color="#7ac5f2"/></linearGradient><linearGradient id="未命名的渐变_7-2" x1="264.75" y1="32.8" x2="328.19" y2="32.8" xlink:href="#未命名的渐变_7"/><linearGradient id="未命名的渐变_7-3" x1="329.92" y1="33.22" x2="393.99" y2="33.22" xlink:href="#未命名的渐变_7"/><linearGradient id="未命名的渐变_7-4" x1="395.52" y1="31.91" x2="458.77" y2="31.91" xlink:href="#未命名的渐变_7"/></defs><title>资源 1</title><g id="图层_2" data-name="图层 2"><g id="图层_1-2" data-name="图层 1"><g id="图层_2-2" data-name="图层 2"><polygon class="cls-1" points="135.35 47.74 148.43 16.06 135.33 47.71 135.35 47.74"/><path class="cls-2" d="M162.46.17h-.09A11.13,11.13,0,0,0,152.2,6.91l-.07.18-3.69,9h0v0L135.35,47.74l0,0L125.6,71.2v0L121,82.39l-.33.79a24.44,24.44,0,0,1-21.84,14.6h-1l-15.57,0-.17,0H0v11a11,11,0,0,0,11,11h96.26A35.47,35.47,0,0,0,139.9,98.34l.7-1.77L178.8.2Z"/><polygon class="cls-3" points="148.44 16.04 148.44 16.04 148.43 16.06 148.44 16.04"/><path class="cls-4" d="M130.07,40.63l-16.35-22a40.23,40.23,0,0,0-2.52-3.39A42,42,0,0,0,104,8.33,41.42,41.42,0,0,0,83.05.2C81.73.07,80.39,0,79,0H12.2V21.8h56A41.47,41.47,0,0,1,99.34,35.86l4.17,5.62.5.83v-.16l12.43,16.73.26.34,8.9,12,9.73-23.49Z"/><path class="cls-5" d="M12.2,21.8v43a11,11,0,0,0,11,11h11v-54Z"/><text class="cls-6" transform="matrix(0.98, 0, -0.21, 0.98, 198.7, 114.72)"></text></g></g></g></svg>